<svg xmlns="http://www.w3.org/2000/svg" viewBox="0 0 64 64" role="img" aria-label="Core SG logo">
  <defs>
    <linearGradient id="g" x1="15%" y1="10%" x2="85%" y2="90%">
      <stop offset="0" stop-color="#53f7ff" />
      <stop offset="0.5" stop-color="#3a7bff" />
      <stop offset="1" stop-color="#b16bff" />
    </linearGradient>
  </defs>
  <rect width="64" height="64" rx="16" fill="#050915" />
  <rect x="6" y="6" width="52" height="52" rx="14" fill="url(#g)" />
  <rect x="6" y="6" width="52" height="52" rx="14" fill="#fff" opacity=".06" />
  <path d="M22 22 L42 20 L40 42 L24 44 Z" fill="none" />
  <g stroke="#dff6ff" stroke-opacity=".55" stroke-width="1.3">
    <rect x="6" y="6" width="52" height="52" rx="14" fill="none" />
  </g>
  <g stroke="#d8f9ff" stroke-opacity=".9" stroke-width="2.2" stroke-linecap="round">
    <line x1="22" y1="22" x2="42" y2="20" />
    <line x1="42" y1="20" x2="40" y2="42" />
    <line x1="40" y1="42" x2="24" y2="44" />
    <line x1="24" y1="44" x2="22" y2="22" />
    <line x1="22" y1="22" x2="40" y2="42" />
  </g>
  <g>
    <circle cx="22" cy="22" r="4" fill="#7cf0ff" />
    <circle cx="42" cy="20" r="4" fill="#70c0ff" />
    <circle cx="40" cy="42" r="4" fill="#ffb4ff" />
    <circle cx="24" cy="44" r="4" fill="#28ffe6" />
  </g>
</svg>
